<?xml version="1.0" encoding="UTF-8"?>
<!DOCTYPE svg PUBLIC "-//W3C//DTD SVG 1.1 Tiny//EN" "http://www.w3.org/Graphics/SVG/1.1/DTD/svg11-tiny.dtd">
<svg baseProfile="tiny" height="16px" version="1.1" viewBox="-0.877 -0.503 16 16" width="16px" x="0px" xmlns="http://www.w3.org/2000/svg" xmlns:xlink="http://www.w3.org/1999/xlink" y="0px">
<g>
<rect fill="none" height="16" width="16" x="-0.877" y="-0.503"/>
<path d="M4.015,2.944L5.66,2.071C5.65,2.075,7.654,1.263,9.368,1.708c1.656,0.432,2.648,1.334,3.603,2.805   c0.953,1.471,1.178,4.049,0.547,5.422s-1.052,1.695-1.515,2.131l-2.15,1.555L4.015,2.944z" fill="url(#SVGID_1_)"/>
<g>
<path d="M12.374,8.62c0.164,3.301-2.211,5.867-5.306,5.732c-3.096-0.133-5.736-2.92-5.9-6.223    C1.004,4.829,3.379,2.261,6.475,2.394C9.569,2.53,12.21,5.319,12.374,8.62z" fill="#CEE1EF"/>
</g>
<path d="M8.194,6.822c0.768,1.117-0.044,2.279-0.05,2.313L8.697,9.7c0.416-0.553,0.951-1.979-0.033-3.399   L8.194,6.822z M5.411,6.518L4.938,5.831C3.96,6.909,4.504,8.523,4.921,9.221l0.551-0.372C5.466,8.819,4.647,7.369,5.411,6.518z    M6.716,6.864c-0.307-0.04-0.201,0.437-0.195,0.462L5.338,12.08l2.813,0.489L6.95,7.4C6.956,7.377,7.058,6.924,6.716,6.864z" fill="#496DA2"/>
<defs>
<linearGradient gradientTransform="matrix(1 0 0 -1 0.1577 14.8145)" gradientUnits="userSpaceOnUse" id="SVGID_1_" x1="7.0313" x2="11.3636" y1="10.8467" y2="5.6805">
<stop offset="0" style="stop-color:#CEE1EF"/>
<stop offset="0.5" style="stop-color:#A2C2DD"/>
<stop offset="1" style="stop-color:#496DA2"/>
</linearGradient>
</defs>
</g>
</svg>
