<?xml version="1.0" encoding="UTF-8" standalone="no"?>
<!DOCTYPE svg PUBLIC "-//W3C//DTD SVG 1.1 Tiny//EN" "http://www.w3.org/Graphics/SVG/1.1/DTD/svg11-tiny.dtd">
<svg xmlns="http://www.w3.org/2000/svg" xmlns:xlink="http://www.w3.org/1999/xlink" baseProfile="tiny" height="16" version="1.1" viewBox="0 0 16.003 16" width="16.003">
<path d="M15.711,9.293l-3.958-3.958C11.912,4.792,12,4.228,12,3.65c0-2.023-1.086-3.442-1.119-3.492  c-0.049,0.035-0.469,0.322-0.658,0.452c0.033,0.048,0.979,1.267,0.979,3.04c0,0.465-0.07,0.919-0.189,1.359  c-0.133-0.001-0.265,0.014-0.391,0.066C10.246,5.231,10.004,5.596,10.004,6c0,0,0,0.5,0,1H7.618L7.282,5.204  c0.451-0.372,0.745-0.927,0.745-1.556c0-1.116-0.909-2.024-2.025-2.024c-1.118,0-2.027,0.908-2.027,2.024  c0,0.623,0.29,1.175,0.734,1.547L4.005,9H2.003v1c-0.404,0-0.769,0.244-0.923,0.617c-0.155,0.374-0.07,0.804,0.217,1.09l4,4  c0.285,0.286,0.716,0.372,1.09,0.217c0.373-0.155,0.617-0.52,0.617-0.924c0,0,0-0.5,0-1c1.389,0,5,0,5,0  c0.154,0,0.309-0.036,0.447-0.105c0.576-0.288,1.553-1.223,1.553-2.895h1c0.404,0,0.768-0.243,0.924-0.617  C16.082,10.009,15.996,9.579,15.711,9.293z"/>
<path d="M8.477,5.494c0.178,0.124,0.482,0.331,0.658,0.452c0.033-0.049,0.75-1.038,0.75-2.296c0-1.32-0.717-2.249-0.75-2.297  c-0.049,0.035-0.468,0.32-0.658,0.451C8.51,1.854,9.089,2.674,9.089,3.65C9.089,4.768,8.51,5.446,8.477,5.494z"/>
<path d="M3.523,1.806C3.346,1.682,3.042,1.475,2.865,1.354c-0.033,0.049-0.75,1.038-0.75,2.296c0,1.32,0.717,2.249,0.75,2.297  c0.049-0.035,0.469-0.32,0.658-0.451C3.49,5.445,2.911,4.626,2.911,3.649C2.911,2.532,3.49,1.854,3.523,1.806z"/>
<path d="M1.119,7.141C1.297,7.018,1.6,6.812,1.777,6.69c-0.033-0.05-0.98-1.282-0.98-3.04c0-1.727,0.947-2.992,0.981-3.04  C1.6,0.487,1.298,0.282,1.121,0.158C1.088,0.208,0,1.58,0,3.65S1.086,7.09,1.119,7.141z"/>
<path d="M11.283,5.187l0.185,0.077c0.153-0.519,0.233-1.061,0.233-1.613c0-1.098-0.312-2.155-0.9-3.071l-0.163,0.109  c0.565,0.887,0.864,1.907,0.864,2.962C11.502,4.175,11.428,4.691,11.283,5.187z" fill="#BFBAA9"/>
<path d="M9.054,5.526c-0.055-0.036-0.11-0.075-0.165-0.11C9.216,4.881,9.387,4.274,9.387,3.65  c0-0.626-0.171-1.233-0.498-1.766l0.165-0.111C9.401,2.336,9.586,2.982,9.586,3.65S9.401,4.961,9.054,5.526L9.054,5.526z" fill="#BFBAA9"/>
<path d="M2.947,5.526c-0.35-0.567-0.533-1.21-0.533-1.876s0.184-1.312,0.533-1.877L3.11,1.885  C2.782,2.42,2.611,3.025,2.611,3.65c0,0.624,0.172,1.23,0.499,1.766L2.947,5.526L2.947,5.526z" fill="#BFBAA9"/>
<path d="M1.2,6.721C0.611,5.81,0.299,4.749,0.299,3.65c0-1.097,0.311-2.155,0.903-3.071l0.157,0.106l0.005,0.003  C0.794,1.576,0.497,2.597,0.497,3.65c0,1.053,0.297,2.071,0.865,2.961L1.2,6.721L1.2,6.721z" fill="#BFBAA9"/>
<polygon fill="#FFFDFC" points="5.659,5.549 5.293,7.529 6.699,7.529 6.328,5.549 "/>
<path d="M11.497,5.136c-0.06-0.034-0.122-0.056-0.187-0.076c-0.145,0.545-0.365,1.069-0.673,1.552  c0.054,0.036,0.106,0.074,0.16,0.109C11.116,6.229,11.346,5.694,11.497,5.136z" fill="#635E54"/>
<path d="M6.001,5.674c0.118,0,0.231-0.016,0.344-0.035L5.991,3.75L5.643,5.638C5.759,5.658,5.878,5.674,6.001,5.674z  " fill="#BFBAA9"/>
<path d="M7.162,10L6.6,7C6.239,7,6.003,7,6.003,7C5.567,7,5.421,7.181,5.349,7.229L4.837,10H3.003v1h6v-1H7.162z" fill="#635E54"/>
<rect fill="none" height="16" width="16" x="0.003"/>
<path d="M2.003,11l3.097,3.097l0.575-1.658c0,0,6.776,0.338,7.073-0.261c0.146-0.296,0.256-0.682,0.256-1.178H2.003z  " fill="#CFFFFF"/>
<path d="M12.822,12H5.003v2l1,1v-2h6C12.004,13,12.533,12.728,12.822,12z" fill="#00CDFF"/>
<path d="M14.214,9.21L11.004,6v2h-5c0,0-0.626,0.326-0.885,1.21H14.214z" fill="#CFFFFF"/>
<path d="M5.185,9c-0.107,0.269-0.182,0.595-0.182,1h10l-1-1H5.185z" fill="#00CDFF"/>
<path d="M6.001,4.674c-0.563,0-1.026-0.461-1.026-1.025s0.462-1.023,1.026-1.023c0.565,0,1.024,0.459,1.024,1.023  S6.566,4.674,6.001,4.674L6.001,4.674z" fill="#FFFDFC"/>
</svg>
