<?xml version="1.0" encoding="UTF-8" standalone="no"?>
<!DOCTYPE svg PUBLIC "-//W3C//DTD SVG 1.1 Tiny//EN" "http://www.w3.org/Graphics/SVG/1.1/DTD/svg11-tiny.dtd">
<svg xmlns="http://www.w3.org/2000/svg" xmlns:xlink="http://www.w3.org/1999/xlink" baseProfile="tiny" height="13px" version="1.1" viewBox="0 0 13 13" width="13px" x="0px" y="0px">
<g>
<rect fill="none" height="13" width="13"/>
<path d="M1.095,3.063c0,1.419,0.777,2.466,0.802,2.501C2.024,5.478,2.24,5.328,2.368,5.242C2.346,5.207,1.665,4.244,1.665,3.063   c0-1.277,0.681-2.144,0.703-2.179C2.24,0.796,2.024,0.647,1.897,0.561C1.875,0.596,1.095,1.687,1.095,3.063z"/>
<path d="M2.609,3.063c0,0.943,0.515,1.61,0.539,1.646c0.128-0.087,0.344-0.235,0.473-0.322c-0.026-0.037-0.44-0.658-0.44-1.323   c0-0.742,0.414-1.289,0.439-1.323C3.492,1.653,3.276,1.505,3.148,1.416C3.124,1.453,2.609,2.104,2.609,3.063z"/>
<path d="M9.697,3.061c0-1.418-0.777-2.465-0.803-2.5C8.768,0.647,8.551,0.796,8.424,0.883C8.447,0.917,9.127,1.88,9.127,3.061   c0,1.278-0.68,2.145-0.703,2.179c0.127,0.089,0.344,0.238,0.471,0.325C8.918,5.529,9.697,4.438,9.697,3.061z"/>
<path d="M8.182,3.061c0-0.942-0.514-1.61-0.539-1.645C7.518,1.502,7.299,1.651,7.17,1.737c0.027,0.037,0.441,0.658,0.441,1.323   c0,0.743-0.414,1.289-0.439,1.324C7.299,4.471,7.518,4.62,7.643,4.709C7.668,4.672,8.182,4.021,8.182,3.061z"/>
<path d="M6,8.426c0,0,0.278,0,0.551,0V8.42c0-0.248,0.051-0.483,0.134-0.702l-0.868-3.47C6.31,4.073,6.664,3.616,6.664,3.063   c0-0.701-0.566-1.269-1.268-1.269c-0.703,0-1.27,0.567-1.27,1.269c0,0.552,0.354,1.008,0.846,1.184L3.852,8.731h-1.63V10H6V8.426z"/>
<path d="M11.545,9.426V8.42c0-0.553-0.447-1-1-1H8.551c-0.553,0-1,0.447-1,1v1.006H7V13h5V9.426H11.545z M10,12H9v-1.574h1V12z    M10.525,9.42H8.572c0-0.85-0.045-0.977,0.57-0.996h0.811C10.57,8.443,10.525,8.57,10.525,9.42z"/>
</g>
</svg>
