<?xml version="1.0" encoding="UTF-8"?>
<!DOCTYPE svg PUBLIC "-//W3C//DTD SVG 1.1 Tiny//EN" "http://www.w3.org/Graphics/SVG/1.1/DTD/svg11-tiny.dtd">
<svg xmlns="http://www.w3.org/2000/svg" xmlns:xlink="http://www.w3.org/1999/xlink" baseProfile="tiny" height="13.003px" version="1.1" viewBox="0 0 13 13.003" width="13px" x="0px" y="0px">
<g>
<path d="M12.482,4.687c-0.107-0.278-0.295-1.325-1.732-2.848c0.092-0.449,0.078-1.618-1.25-1.818   C7.719-0.123,7.047,0.846,6.701,0.958C6.494,1.024,3.891,1.705,2.582,3.59C2.203,4.135,1.438,5.471,1.764,7.733   C1.596,7.782,0.938,7.954,0.625,8.096c-0.16,0.072-0.109,0.171-0.109,0.171s0.25,1.282,1.779,2.875   c-0.043,0.215-0.232,1.47,1.229,1.855L3.535,13c0,0,1.527,0.111,2.734-1.023c4.184-1.256,5.391-3.733,4.965-6.761   c0.211-0.064,0.781-0.261,1.188-0.386C12.422,4.83,12.5,4.752,12.482,4.687z M10.68,4.868c1.133,5.54-4.666,6.664-4.666,6.664   s-1.17,1.095-2.362,0.971c-1.229-0.204-0.817-1.52-0.817-1.52s-1.396-1.45-1.738-2.531c0.248-0.083,1.136-0.329,1.136-0.329   S1.813,5.549,2.992,3.876c1.867-2.265,3.57-2.171,4.326-2.721C7.723,0.861,8.188,0.439,9.46,0.52   c0.292,0.046,1.04,0.248,0.749,1.474c0.9,0.883,1.516,2.047,1.685,2.496C11.71,4.548,10.703,4.877,10.68,4.868z" fill="#231F20"/>
<path d="M3.301,8.513c-0.02-0.011-0.926,0.239-0.94,0.254c0.64,1.751,2.265,2.595,2.895,2.406   c0.792-0.499,1.167-2.671,0.832-3.564C5.699,7.733,4.891,7.924,4.894,7.952C4.359,5.455,6.204,3.487,6.195,3.485   C6.195,3.485,2.406,4.518,3.301,8.513z" fill="#231F20"/>
<rect fill="none" height="13" width="13"/>
<path d="M9.738,4.39c0.02,0.011,0.926-0.239,0.94-0.254c-0.64-1.751-2.265-2.595-2.895-2.406   C6.992,2.229,6.617,4.4,6.952,5.294C7.34,5.169,8.148,4.979,8.146,4.95C8.68,7.447,6.835,9.415,6.844,9.417   C6.844,9.417,10.633,8.385,9.738,4.39z" fill="#231F20"/>
</g>
</svg>
